<svg id="Layer_1" data-name="Layer 1" xmlns="http://www.w3.org/2000/svg" viewBox="0 0 74.08 18.94"><title>Marshall Amplification logo - Brandlogos.net</title><path d="M370.89,392.94c-.36.16-1,.23-1.13-.25a3.49,3.49,0,0,1,.87-2.85,5.2,5.2,0,0,1,2.41-2.1c.43-.16,1,.05,1,.44a5.71,5.71,0,0,1-3.12,4.76M357,392.68a1,1,0,0,1-1.15.75h0c-.63-.17-1.09-1.13-.85-1.44.4-.53,1.61-2,1.77-2.12a4.26,4.26,0,0,1,.23,2.82m-6.34-7.1,0,.06a1.73,1.73,0,0,1-.2-1.53c.05-.18.19-.44.27-.4.62.31.44,1.23,0,1.87m-6.21,2.75c-.36,2.12-1.65,4.31-3.8,4.72h0c-.29.05-.67-.47-.57-.95a5.9,5.9,0,0,1,2.08-3.49,5.07,5.07,0,0,1,1.24-.85c.52-.24,1.19,0,1.1.55m36-.21a30.37,30.37,0,0,1,2.17-3.17,14.75,14.75,0,0,1,2.51-2.43,14.63,14.63,0,0,1-1.94,3.25,13.21,13.21,0,0,1-2.74,2.37ZM386,388a18.59,18.59,0,0,1,2.12-3.27,14.17,14.17,0,0,1,2.32-2.25,10.73,10.73,0,0,1-1.58,2.83,15.35,15.35,0,0,1-2.85,2.71Zm1.4.68a13.1,13.1,0,0,0,4.86-7.2.79.79,0,0,0-.67-.87c-1.07-.14-1.88.74-2.68,1.38a17.5,17.5,0,0,0-4.06,4.66c-1.37,2.19-2.18,4.57-4.31,6.11-.58.42-1.36.52-1.63-.27a3.64,3.64,0,0,1,.17-1.62c.06-.35,1.76-1.33,2.22-1.66h0a14.24,14.24,0,0,0,5.7-7.37c.42-1.11-.88-1.56-1.58-1.19-4.1,2.19-7.2,7.51-8.11,10.15a12.05,12.05,0,0,1-2,1.94c-.52.37-.72-.6-.53-1l2.39-4.71c.23-.71-1.28-.85-1.66-.47,0,0-.21.3-.32.49-1.66-2.09-6,.74-7.35,4.3a9.25,9.25,0,0,1-1.48,1.28c-.18.12-.64.29-.45-.07.77-1.45,2.39-3.51,2-5-.15-.63-.59-1.56-1.62-1.21-.14,0-1.61,1-1.58.93.8-1.92,1.68-4,2.54-5.94.41-.93-1.4-1.3-1.73-.57-1.35,2.94-2.8,6.24-4.16,9.07,0,.06-1.33.92-2.15,1.55.09-2.34-1-2.73-.55-3.35.29-.42.76-1,1.24-1.66s-1.14-1.39-1.62-.81c-2.19,2.68-5,6.15-5.07,6.19-1.59,1.34-2.94,1.63-2.88,1.09.23-2.13,2.08-3.39,3.18-5.17a.82.82,0,0,0-.79-1.23c-.35,0-1.28.26-1.18.08.32-.58,1.37-1.85.63-3.32-.66-1.29-2.42-.86-2.92.3a4.1,4.1,0,0,0,.4,3.6c-1.51,2.2-3.26,4.94-4.56,5.34-.2.06-.34-.2-.27-.32.88-1.58,1.65-3.06,2.54-4.74a.59.59,0,0,0,0-.56,1.1,1.1,0,0,0-1.78.27,2.4,2.4,0,0,0-2.25-.56,7.63,7.63,0,0,0-5.13,4.87,5.24,5.24,0,0,1-2.12,1.59c-.61.1-1.11.25-1.29-.51-.86-3.6,2.74-9.63,6.52-15.54a.57.57,0,0,0-.26-.84.84.84,0,0,0-.71,0c-3.61,3.11-6.12,6.86-8.7,10.69a17.47,17.47,0,0,1,.87-5.54,26,26,0,0,1,1.65-4.16c.44-.85-.89-1.67-1.41-.88-3.75,5.65-4.72,10.35-7.92,15.24a3.43,3.43,0,0,1-3.05,1.63c-2.42-.15-1.88-4.07.49-3.13.5.2.85-.84.27-1.07-4.88-1.94-5.69,4.36-2.21,5.52,5,1.66,7.45-4.06,9.1-7.64.15,2.08-1.08,5.19-1.47,7.41-.1.54.87.74,1.15.44a29.33,29.33,0,0,0,3.94-5.91,17.42,17.42,0,0,0-.27,4.08,2,2,0,0,0,1.48,1.87c1.86.35,2.77-.32,3.9-1.24l0,0c.86,1.77,2.94,1.58,4.53.45.71,1.28,1.74,1,3.3,0s3.77-4.53,4.85-6l.45.18v.15c-2.94,2.84-3.58,5.21-2.33,6.15,1.46,1.1,3-.25,4.41-1a2.54,2.54,0,0,0,2.88,1.39c1.49-.27,2.46-1.29,3.84-2.23-.28.62-.91,1.25-.46,1.92a1.23,1.23,0,0,0,1.84-.15c.51-1.08,1.44-3.1,1.95-4.23a20.88,20.88,0,0,1,1.86-1.57c.24-.19.65,0,.5.24s-1.31,2.35-1.93,3.71a1.64,1.64,0,0,0,.72,2.09c1.14.73,2.29-.45,3.31-1.12h0c1.45,2.4,3.63,1,4.84.29,1.07,2.34,3.19.11,4.28-.77a1.81,1.81,0,0,0,2.5,1.79,6.36,6.36,0,0,0,3-2,2.56,2.56,0,0,0,1.29,1.83,3,3,0,0,0,3-.61,9.38,9.38,0,0,0,2.7-3.31c.26-.52-.3-1.06-.62-.67-.63.77-1.68,2.31-2.74,2.81-2.18,1-1.64-1.93-1.43-2.08.86-.62,1.81-1.29,2.74-2.05" transform="translate(-318.19 -375.95)"/></svg>