<svg id="Layer_1" data-name="Layer 1" xmlns="http://www.w3.org/2000/svg" viewBox="0 0 628.51 174.2"><title>Upwork Inc. logo - Brandlogos.net</title><path d="M242.05,415.48a40.69,40.69,0,0,1-32.23-19c4.17-33.22,16.3-43.55,32.35-43.55s28.24,12.44,28.24,31.11S258,415.11,242.17,415.11m0-83A48.34,48.34,0,0,0,193,369.94a161.75,161.75,0,0,1-12-35H141.39v49.15c0,17.86-8.09,31.11-24,31.11S92.55,402,92.55,384.12V335H69.78v49.15a53.57,53.57,0,0,0,13.13,37.2,45.23,45.23,0,0,0,34.47,14.62c27.44,0,46.66-21.09,46.66-51.26V351.46a160.94,160.94,0,0,0,22.77,50.08L174.61,471.1h23.14l8-49.27a68.43,68.43,0,0,0,8.46,6.22A51.76,51.76,0,0,0,240,436h2.12A50.39,50.39,0,0,0,293,386.14q0-1.07,0-2.14a50.52,50.52,0,0,0-49.32-51.69h-1.63" transform="translate(-69.75 -296.9)" style="fill:#000000"/><path d="M569.41,345.8V335.35H547v97.24h22.71V394.51c0-23.45,2.12-40.31,33.59-38.14V334.23c-14.68-1.12-26.13,1.93-33.91,11.63" transform="translate(-69.75 -296.9)" style="fill:#000000"/><polygon points="342.33 38.38 325.91 106.45 308.36 38.38 279.5 38.38 261.95 106.45 245.53 38.38 222.57 38.38 247.77 135.75 275.02 135.75 293.93 66.63 312.66 135.75 339.91 135.75 366.53 38.38 342.33 38.38" style="fill:#000000"/><path d="M486.17,415.54c-16.11,0-28.18-12.75-28.18-31.11s12.44-31.11,28.18-31.11,28.49,12,28.49,30.67-12.44,31.11-28.24,31.11m0-83.05a50.39,50.39,0,0,0-51.1,49.68q0,1.13,0,2.27a50.89,50.89,0,1,0,101.72,3.56q.06-1.78,0-3.56a50.45,50.45,0,0,0-49.19-51.69h-1.7" transform="translate(-69.75 -296.9)" style="fill:#000000"/><path d="M635.79,384.81H641l31.67,47.84h25.57l-36.39-53.07a47.65,47.65,0,0,0,29.49-44.23H668.77c0,21-16.55,28.93-33,28.93V296.9H613.09V432.65h22.65Z" transform="translate(-69.75 -296.9)" style="fill:#000000"/></svg>