<svg id="Layer_1" data-name="Layer 1" xmlns="http://www.w3.org/2000/svg" viewBox="0 0 94.1 56.9"><title>Bellroy logo - Brandlogos.net</title><path d="M187.9,349.6a8.41,8.41,0,0,1-5.8-2.2,8.2,8.2,0,0,1-3.1-5.8,1.27,1.27,0,0,0-.1-.6V324.7s4.1,0,4.1,3.7v4.7l.6-.3a.1.1,0,0,0,.1-.1.35.35,0,0,0,.2-.1,8.2,8.2,0,0,1,4.2-1.1h.4a8.84,8.84,0,0,1,5,1.7,9.22,9.22,0,0,1,3.7,6,9,9,0,0,1-7.2,10.3C189.2,349.5,188.5,349.6,187.9,349.6Zm.2-14.3a2.77,2.77,0,0,0-.9.1,4.75,4.75,0,0,0-4.2,5v.4a4.46,4.46,0,0,0,1.7,3.6,5.33,5.33,0,0,0,3.4,1.3,6.37,6.37,0,0,0,2.7-.7,4.84,4.84,0,0,0,2.4-5.2A5.12,5.12,0,0,0,188.1,335.3Zm57,14.3a9.08,9.08,0,0,1-6.5-2.7,9,9,0,0,1-.2-12.7,9.39,9.39,0,0,1,6.7-2.9,9.16,9.16,0,0,1,.5,18.3Zm.1-14.3a3.75,3.75,0,0,0-1,.1,5.1,5.1,0,0,0-4.3,5.2v.4a5,5,0,0,0,5.1,4.9,6.37,6.37,0,0,0,2.7-.7,5.45,5.45,0,0,0-2.5-9.9Zm-29-10.6v24.6h4.3V328.4C220.4,324.8,216.2,324.7,216.2,324.7Zm6.2,0v24.6h4.3V328.4C226.7,324.5,222.4,324.7,222.4,324.7Z" transform="translate(-178.9 -300.8)"/><path d="M228.6,349.3v-9.1a11.57,11.57,0,0,1,.7-4.4,7,7,0,0,1,4.7-4,11.49,11.49,0,0,1,3.4-.4v3.9a7.88,7.88,0,0,0-2,.3,3.19,3.19,0,0,0-2.5,2.8,13.79,13.79,0,0,0-.2,2.2v8.7Zm27.3,2.4a3.07,3.07,0,0,1,2.7,1.3,3.44,3.44,0,0,0,2.1.8,4.25,4.25,0,0,0,4.1-4.1v-.9a6.09,6.09,0,0,1-3.2.8,7.41,7.41,0,0,1-7.3-7.6V331.6h4.1v10.2a3.52,3.52,0,0,0,3.2,3.6,3.33,3.33,0,0,0,3.2-3.6v-6.5c0-3.7,4.1-3.7,4.1-3.7v18a8,8,0,0,1-8.2,8.1,7.62,7.62,0,0,1-7.1-4.7,5.5,5.5,0,0,1-.5-1.4S254.4,351.7,255.9,351.7Zm-49.6-5.8a4.92,4.92,0,0,1-4-2l13-4.6a9.28,9.28,0,0,0-12.2-7.3,9.14,9.14,0,0,0-2.6,15.5,9.69,9.69,0,0,0,6.3,2.2,7.53,7.53,0,0,0,2.9-.6,8.38,8.38,0,0,0,5.8-6.7h-2.4a3.14,3.14,0,0,0-2.5,1.4A5.94,5.94,0,0,1,206.3,345.9Zm-1.7-10.3c.1,0,.1,0,.2-.1h.3a5.07,5.07,0,0,1,1.3-.2,5.94,5.94,0,0,1,2.6.7,3.92,3.92,0,0,1,1,.8v.3l.4.4-9.2,3.2v-.5A5,5,0,0,1,204.6,335.6Zm47-30.1a1.32,1.32,0,0,0-1.3,1.3,1.25,1.25,0,0,0,1.5,1.2,5.26,5.26,0,0,0,1.8,2.8l.4.2.4-.3a6,6,0,0,0,1.7-2.8h.3a1.25,1.25,0,1,0-.1-2.5,1.26,1.26,0,0,0-1.3,1.3,5.48,5.48,0,0,1-1.1,2.9,5.37,5.37,0,0,1-1.1-2.9A1.15,1.15,0,0,0,251.6,305.5Zm16.5,11.6c-2.5-6.2-6.1-8-7.6-8.6a4.48,4.48,0,0,0,.1-1.2,6.57,6.57,0,0,0-6.6-6.5,7.09,7.09,0,0,0-6.8,6.4c-.7,8.7,5,13.5,7.8,15.7,1.6,1.2,2.4,2.1,1.5,3.6-.6.8-1.2,2-1.8,2.2a2.89,2.89,0,0,0-2.1,1.3H254c1.8,0,2.3-.1,4.1-3s-1-4.5-2.1-5.4c-2.8-2.1-8-6.4-7.3-14.2v-.1a5.47,5.47,0,0,1,5.4-5.2,5.16,5.16,0,0,1,3.7,8.8,4.75,4.75,0,0,1-3.6,1.5,5.07,5.07,0,0,1-1.3-.2,1.7,1.7,0,0,0-2,.6l-.1.1.1.1a6.29,6.29,0,0,0,3.3.9,6,6,0,0,0,4.6-1.9,6.61,6.61,0,0,0,1.4-2c1.2.5,4.4,2.1,6.7,7.7.6,1.4,1.1,2.8,1.6,4-1.8,0-8.1-.2-11.2-5.1a2,2,0,0,0-2.1-1c3.2,7.7,12.3,7.5,14,7.6.8,2,1.5,3.6,1.8,4.5a6,6,0,0,1-3.7-1.7,7.11,7.11,0,0,0-5.1-1.9l-4,6.3a3.58,3.58,0,0,0,2.7-1.2l2.2-3.5a6.12,6.12,0,0,1,3.3,1.5c2.1,1.7,3.4,1.9,4.7,1.9a3.5,3.5,0,0,0,1.9-.3S270.6,323.2,268.1,317.1Z" transform="translate(-178.9 -300.8)"/></svg>