<svg id="Layer_1" data-name="Layer 1" xmlns="http://www.w3.org/2000/svg" viewBox="0 0 180.3 35.2"><title>ALAIA logo - Brandlogos.net</title><path id="path4" d="M108.3,206h0l12.5.1L114.6,193Zm11.5-16.6a2.5,2.5,0,0,0-.5,1.1c0,1.1,6.9,15.5,9,20a21.46,21.46,0,0,0,3.6,5.7h-8.7c.2-.3.6-.6.7-.9a9.25,9.25,0,0,0,.3-1,10,10,0,0,0-1.4-4.1H106.4a7.37,7.37,0,0,0-1.2,3.7,2.66,2.66,0,0,0,1.4,2.2h-9c3.7-4.4,4.9-8.9,7.1-13.3,1.3-2.6,5.7-11.6,5.7-12.3,0-.4-.2-.6-.6-1.1ZM187.7,206l12.5.1L194,192.9Zm11.4-16.6a2.5,2.5,0,0,0-.5,1.1c0,1.1,6.9,15.5,9,20a21.46,21.46,0,0,0,3.6,5.7h-8.7c.2-.3.6-.6.7-.9a9.25,9.25,0,0,0,.3-1,10,10,0,0,0-1.4-4.1H185.7a7.37,7.37,0,0,0-1.2,3.7,2.66,2.66,0,0,0,1.4,2.2h-9c3.7-4.4,4.9-8.9,7.1-13.3,1.3-2.6,5.7-11.6,5.7-12.3,0-.4-.2-.6-.6-1.1ZM254.4,206l12.5.1L260.7,193Zm11.4-16.6a2.5,2.5,0,0,0-.5,1.1c0,1.1,6.9,15.5,9,20a21.46,21.46,0,0,0,3.6,5.7h-8.7c.2-.3.6-.6.7-.9a9.25,9.25,0,0,0,.3-1,10,10,0,0,0-1.4-4.1H252.5a7.37,7.37,0,0,0-1.2,3.7,2.66,2.66,0,0,0,1.4,2.2h-9c3.7-4.4,4.9-8.9,7.1-13.3,1.3-2.6,5.7-11.6,5.7-12.3,0-.4-.2-.6-.6-1.1Zm-33.9,0a5.17,5.17,0,0,0-2.1,4V212c0,3.2,2.2,4.1,2.2,4.1h-9.7a4.2,4.2,0,0,0,2.3-4.1V193.5a4.79,4.79,0,0,0-2.2-4.1Z" transform="translate(-97.6 -181)"/><circle id="circle6" cx="126.7" cy="2.1" r="2.1"/><circle id="circle8" cx="132.4" cy="2.1" r="2.1"/><path id="path10" d="M142.5,189.4h9.7c-1.4.8-2.2,3.1-2.2,4.2v18.2h11.9a13.76,13.76,0,0,0,6.3-2c-.4,1.2-1.6,3.9-1.6,5.3a1.07,1.07,0,0,0,.5,1H142.3c1.8-.6,2.4-3.1,2.4-4.3V193.6C144.7,192.4,143.9,190.1,142.5,189.4Z" transform="translate(-97.6 -181)"/></svg>