<svg id="Layer_1" data-name="Layer 1" xmlns="http://www.w3.org/2000/svg" viewBox="0 0 607 134.09"><title>Revolut 2023 logo - Brandlogos.net</title><path d="M494.51,317h23.83v133H494.51Zm193,56V352.34H662.86v-26.9H639v98.07c0,9,2.27,15.88,6.74,20.41s11.43,6.84,20.7,6.84h21V430.13H672.11c-3.35,0-5.75-.74-7.14-2.19s-2.11-4.69-2.11-8.56V373ZM332.63,424l24.64-71.7h25l-35.57,97.58H318.53L283,352.34h25Zm267.55-22.82a41.6,41.6,0,0,1-2.78,16,21.8,21.8,0,0,1-7.8,10,21.48,21.48,0,0,1-12.22,3.39c-6.81,0-12-2.24-15.28-6.65S557,412.73,557,403.86V352.34H533.21v54.15c0,8.43,1.05,15.58,3.13,21.25a36.06,36.06,0,0,0,8.5,13.75,31.1,31.1,0,0,0,12.34,7.37A49,49,0,0,0,571.93,451c7.45,0,13.62-1.35,18.32-4A41.41,41.41,0,0,0,601,438.54l2.13,11.38H624V352.34H600.18Zm-142.1-43.74c-7.51-4.16-16.43-6.27-26.5-6.27s-18.84,2.11-26.41,6.27A44.6,44.6,0,0,0,387.46,375c-4.16,7.44-6.27,16.27-6.27,26.22s2.11,18.59,6.27,26a44.58,44.58,0,0,0,17.71,17.51c7.57,4.16,16.46,6.27,26.41,6.27s19-2.11,26.5-6.27a44.74,44.74,0,0,0,17.61-17.51c4.16-7.45,6.27-16.21,6.27-26s-2.11-18.77-6.27-26.22A44.76,44.76,0,0,0,458.08,357.49Zm-12.59,69.72a25.37,25.37,0,0,1-36.85-10.51,38.81,38.81,0,0,1,0-31,25.82,25.82,0,0,1,9.12-10.51,26.8,26.8,0,0,1,27.72,0,26.14,26.14,0,0,1,9,10.51,38.84,38.84,0,0,1,0,31A25.33,25.33,0,0,1,445.49,427.21ZM105.27,349.77H80.5V449.92h24.77Zm77.67,5.73A38.6,38.6,0,0,0,144.36,317H80.5v21.39h60.82c9.63,0,17.6,7.56,17.78,16.86a17.2,17.2,0,0,1-17.19,17.52H118.22a1.53,1.53,0,0,0-1.53,1.52v19a1.52,1.52,0,0,0,.29.89l40.2,55.77H186.6L146.31,394A38.78,38.78,0,0,0,182.93,355.5Zm76.16,1.42c-7.13-3.79-15.61-5.71-25.18-5.71s-18.15,2.11-25.47,6.28A44,44,0,0,0,191.3,375c-4,7.44-6.08,16.32-6.08,26.41,0,9.83,2.08,18.59,6.18,26A43.27,43.27,0,0,0,209,444.87c7.56,4.1,16.64,6.18,27,6.18a50.22,50.22,0,0,0,21.87-4.56,41.24,41.24,0,0,0,15.33-12.29,40.23,40.23,0,0,0,7.34-16.36l.13-.64H257l-.11.38a18.58,18.58,0,0,1-7.53,10.49,25.29,25.29,0,0,1-14.46,4,26.64,26.64,0,0,1-12.82-3,21.16,21.16,0,0,1-8.63-8.53,30,30,0,0,1-3.41-13.1v-.78h71.59l.08-.44a32.48,32.48,0,0,0,.48-4.21c.06-1.39.09-2.77.09-4.17-.13-9.45-2.24-17.77-6.28-24.72A42.05,42.05,0,0,0,259.09,356.92Zm-8.68,18.38c4.07,3.43,6.6,8.3,7.53,14.48H210.81a22.21,22.21,0,0,1,4-10.34,22.62,22.62,0,0,1,8.36-7,24.63,24.63,0,0,1,11-2.49C240.71,370,246.2,371.76,250.4,375.29Z" transform="translate(-80.5 -316.96)" style="fill:#191c1f"/></svg>