<svg id="Layer_1" data-name="Layer 1" xmlns="http://www.w3.org/2000/svg" viewBox="0 0 406 108.84"><title>Rodenstock GmbH logo - Brandlogos.net</title><path d="M195.73,434.95H181l25.62-105.1c2.08-.17,4.16-.27,6.29-.27a73.48,73.48,0,0,1,69.56,49.78L254.53,393a130.22,130.22,0,0,1,30.62,39.79l-11.55,5.64-.1-.2a117.5,117.5,0,0,0-44.15-47.81l36.11-17.6a60.64,60.64,0,0,0-47.26-30.16Z" transform="translate(-181 -329.58)"/><path d="M307.36,423.8h-7.63V379.37h10.7c8.55,0,12.92,3.63,12.92,13.11,0,7.14-2.77,10-5.35,11.2l6.46,20.12h-7.75l-5.41-18.4a37,37,0,0,1-3.94.18V423.8Zm0-24.49h2.71c4.12,0,5.66-1.54,5.66-6.83s-1.54-6.83-5.66-6.83h-2.71Z" transform="translate(-181 -329.58)"/><path d="M330.5,390.14c0-6.28,3.69-11.38,11.69-11.38s11.69,5.11,11.69,11.38V413c0,6.28-3.69,11.38-11.69,11.38S330.5,419.31,330.5,413Zm7.63,22.7c0,3.32,1,4.93,4.06,4.93s4.06-1.6,4.06-4.93V390.32c0-3.32-1-4.92-4.06-4.92s-4.06,1.6-4.06,4.92Z" transform="translate(-181 -329.58)"/><path d="M361.27,379.37h11.32c7.88,0,12.06,4.31,12.06,13.41v17.6c0,9.11-4.18,13.41-12.06,13.41H361.27Zm7.63,38.15h2.65c4.06,0,5.48-1.54,5.48-6.21V391.86c0-4.67-1.41-6.21-5.48-6.21H368.9Z" transform="translate(-181 -329.58)"/><path d="M392,423.8V379.37h20.43V386h-12.8v11.44h9.85v6.65h-9.85v13h13.66v6.64H392Z" transform="translate(-181 -329.58)"/><path d="M419.37,423.8V379.37h7.08l9.29,25.41h.12V379.37h6.89V423.8H436.1L426.38,396h-.12V423.8h-6.89Z" transform="translate(-181 -329.58)"/><path d="M464,390.32c-.31-3.81-2.34-4.92-4.06-4.92-2.46,0-3.81,1.6-3.81,4.36,0,7.57,15.51,11.2,15.51,23.26,0,7.32-4.92,11.38-12.06,11.38s-11.14-5.66-11.45-12.31l7.26-1c.31,4.49,2.09,6.71,4.55,6.71,2.65,0,4.43-1.42,4.43-4.06,0-8.8-15.51-11.14-15.51-23.88,0-7.07,4.31-11.07,11.81-11.07,6.21,0,9.9,4.49,10.58,10.77l-7.26.8Z" transform="translate(-181 -329.58)"/><path d="M481.89,386h-7.38v-6.65h22.4V386h-7.38V423.8h-7.63Z" transform="translate(-181 -329.58)"/><path d="M501.4,390.14c0-6.28,3.69-11.38,11.69-11.38s11.69,5.11,11.69,11.38V413c0,6.28-3.69,11.38-11.69,11.38S501.4,419.31,501.4,413Zm7.63,22.7c0,3.32,1,4.93,4.06,4.93s4.06-1.6,4.06-4.93V390.32c0-3.32-1-4.92-4.06-4.92S509,387,509,390.32Z" transform="translate(-181 -329.58)"/><path d="M547.56,394.2v-3.45c0-3.75-1.72-5.35-3.69-5.35-3.08,0-4.06,1.6-4.06,4.92v22.52c0,3.32,1,4.93,4.06,4.93,2.77,0,3.69-1.6,3.69-4.49v-5.35h7.63V413c0,6.28-3.69,11.38-11.32,11.38-8,0-11.69-5.11-11.69-11.38V390.14c0-6.28,3.69-11.38,11.69-11.38,7.63,0,11.32,5.54,11.32,12.19v3.26h-7.63Z" transform="translate(-181 -329.58)"/><path d="M562.58,423.8V379.37h7.63V395.8h.12l8-16.43H586l-8.24,16.55L587,423.8h-7.75L573,403.12h-.12L570.2,408V423.8h-7.63Z" transform="translate(-181 -329.58)"/></svg>