<svg id="Layer_1" data-name="Layer 1" xmlns="http://www.w3.org/2000/svg" viewBox="0 0 160 20.92"><title>Gigabyte logo - Brandlogos.net</title><g id="CI"><path id="GIGABYTE" d="M307.69,321.92V305.13h-5.18V301h15.88v4.13h-5.15v16.78Zm-20.09,0V314l-7.74-13h6.42l4.09,8.41,4.06-8.41h6.42l-7.66,13v7.89Zm-24.71,0V301h9.61c3.9,0,6.8,1.73,6.8,5.29,0,2.63-1.35,4.09-3.68,4.88v.07c2.78.56,4.24,2.06,4.24,4.62,0,5-4.39,6-8.15,6Zm5.56-3.94h1.66c2,0,4.17-.3,4.17-2.44,0-2.29-2.18-2.48-4.09-2.48h-1.73Zm1.58-8.71c1.84,0,3.72-.45,3.72-2.22s-1.8-2.1-3.64-2.1h-1.62v4.32Zm-1.54,0h0Zm-14.05,12.66-1.58-4.47H245l-1.65,4.47h-5.67l8-20.92h6.83l8.07,20.92Zm-8.15-8.42h5.26l-2.48-8.18H249Zm-19.91,8.42a10.56,10.56,0,0,1-10.55-10.44,10.39,10.39,0,0,1,10.36-10.41h.38l8.56,0v4.47h-7.66c-3.72.3-5.74,2.74-5.74,5.9a5.88,5.88,0,0,0,5.59,5.63h1.62a.66.66,0,0,0,.68-.65s0,0,0,0v-6.57h5.71v12.05Zm-19.26,0V301.08h5.56v20.84Zm-13.52,0A10.57,10.57,0,0,1,183,311.48a10.38,10.38,0,0,1,10.36-10.41h.38l8.56,0v4.47h-7.66c-3.72.3-5.74,2.74-5.74,5.9a5.87,5.87,0,0,0,5.6,5.63h1.6a.66.66,0,0,0,.68-.65s0,0,0,0v-6.58h5.74v12.05Zm127.26,0V301H335.6v3.94h-9.16v4.32h8.67v3.94h-8.67v4.73h9.5v3.94Zm21.59-17.8v-2.4l-.68,2.4h-.6l-.6-2.4v2.4H340V301h.94l.56,2.1.56-2.1H343v3.08Zm-4.36,0v-2.55h-.9V301h2.44v.53h-.9v2.55Z" transform="translate(-183 -301)"/></g></svg>