<svg id="Layer_1" data-name="Layer 1" xmlns="http://www.w3.org/2000/svg" viewBox="0 0 748.26 162.03"><title>Conair Corporation logo - Brandlogos.net</title><g id="layer1"><g id="g3202"><path id="path16" d="M225.28,304.74a80.14,80.14,0,1,0,80.14,80.14A80.14,80.14,0,0,0,225.28,304.74Zm0,36.22a43.91,43.91,0,1,1-43.91,43.91A43.91,43.91,0,0,1,225.28,341" transform="translate(-9.87 -302.98)" style="fill:#231f20"/><path id="path18" d="M9.87,384.49c0,28.72,14.36,79.89,68.31,80.34,45.8.39,67.54-30.27,69.47-60.55h-38c-3.49,23.29-20.18,24.06-29.11,24.06s-33-.77-33-43.86,24.06-45.41,33-45.41,25.62,2.33,29.11,25.62h38C145.72,334.43,133.3,303,79.35,303S9.87,355.77,9.87,384.49" transform="translate(-9.87 -302.98)" style="fill:#231f20"/><path id="path20" d="M312.22,311.52V462.89h35.71V376.73l42.31,86.17h41.14V311.52H395.67v86.94l-43.08-86.94H312.22" transform="translate(-9.87 -302.98)" style="fill:#231f20"/><path id="path22" d="M566.83,369.35h37.26V311.52H566.83Z" transform="translate(-9.87 -302.98)" style="fill:#231f20"/><path id="path24" d="M566.83,391.48h37.26V373.62H566.83Z" transform="translate(-9.87 -302.98)" style="fill:#231f20"/><path id="path26" d="M566.83,409.33h37.26v-13.2H566.83Z" transform="translate(-9.87 -302.98)" style="fill:#231f20"/><path id="path28" d="M566.83,428h37.26V417.09H566.83Z" transform="translate(-9.87 -302.98)" style="fill:#231f20"/><path id="path30" d="M566.83,446.2h37.26v-8.93H566.83Z" transform="translate(-9.87 -302.98)" style="fill:#231f20"/><path id="path32" d="M566.83,462.89h37.26v-4.66H566.83Z" transform="translate(-9.87 -302.98)" style="fill:#231f20"/><path id="path34" d="M729.07,409.33H613.79v-13.2h104c7,0,11.64,9.7,11.26,13.2" transform="translate(-9.87 -302.98)" style="fill:#231f20"/><path id="path36" d="M613.79,428h37.26V417.09H613.79Z" transform="translate(-9.87 -302.98)" style="fill:#231f20"/><path id="path38" d="M613.79,446.2h37.26v-8.93H613.79Z" transform="translate(-9.87 -302.98)" style="fill:#231f20"/><path id="path40" d="M613.79,462.89h37.26v-4.66H613.79Z" transform="translate(-9.87 -302.98)" style="fill:#231f20"/><path id="path42" d="M458.74,369.35h35.52L497.94,356,502,369.35h35.71l-19.21-57.83H477.56l-18.83,57.83" transform="translate(-9.87 -302.98)" style="fill:#231f20"/><path id="path44" d="M457.38,373.62l-6,17.85h35.9l5.62-17.85H457.38" transform="translate(-9.87 -302.98)" style="fill:#231f20"/><path id="path46" d="M450,396.13l-4.27,13.2h105l-4.47-13.2H450" transform="translate(-9.87 -302.98)" style="fill:#231f20"/><path id="path48" d="M443.21,417.09,439.53,428H556.74l-3.69-10.87H443.21" transform="translate(-9.87 -302.98)" style="fill:#231f20"/><path id="path50" d="M436.42,437.28l-2.91,8.93h37.84l2.52-8.93H436.42" transform="translate(-9.87 -302.98)" style="fill:#231f20"/><path id="path52" d="M429.63,458.23h38.23l-1.36,4.66H428.08l1.55-4.66" transform="translate(-9.87 -302.98)" style="fill:#231f20"/><path id="path54" d="M538.69,373.62l5.82,17.85h-35.9l-5.44-17.85h35.52" transform="translate(-9.87 -302.98)" style="fill:#231f20"/><path id="path56" d="M559.65,437.28l2.91,8.93H524.72l-2.52-8.93h37.46" transform="translate(-9.87 -302.98)" style="fill:#231f20"/><path id="path58" d="M566.45,458.23H528.22l1.35,4.66H568l-1.55-4.66" transform="translate(-9.87 -302.98)" style="fill:#231f20"/><path id="path60" d="M651.06,373.62h31.83c20.57,0,17.86-28.72.39-28.72H651.06Zm-37.26,17.85v-80h77.63c22.12.39,41.53,16.3,42.69,35.32s-8.93,35.71-27.17,44.64H613.79" transform="translate(-9.87 -302.98)" style="fill:#231f20"/><path id="path62" d="M692.59,428h37.26V417.09H692.59Z" transform="translate(-9.87 -302.98)" style="fill:#231f20"/><path id="path64" d="M692.59,446.2h37.26v-8.93H692.59Z" transform="translate(-9.87 -302.98)" style="fill:#231f20"/><path id="path66" d="M733.72,458.23c.39,1.94,1.55,3.11,3.5,4.66H700c-1.94-1.55-3.1-2.72-3.49-4.66h37.26" transform="translate(-9.87 -302.98)" style="fill:#231f20"/><path id="path68" d="M745,319.09h3.4c1.48,0,3.12.55,3.12,2.45,0,2.15-2,2.34-3.9,2.34H745v.92h3.21l3.71,5.69h1.17l-3.68-5.66c1.76-.28,3.18-1.26,3.18-3.27,0-2.23-1.23-3.4-4-3.4h-4.63v12.33H745v-11.4" transform="translate(-9.87 -302.98)" style="fill:#231f20"/><path id="path70" d="M747.7,313.9a10.43,10.43,0,1,1-10.43,10.43A10.41,10.41,0,0,1,747.7,313.9l0,.92a9.25,9.25,0,0,0-9.4,9.51,9.37,9.37,0,1,0,18.74,0,9.23,9.23,0,0,0-9.34-9.48l0-.92" transform="translate(-9.87 -302.98)" style="fill:#231f20"/></g></g></svg>