<svg width="284.5699920654297" height="57.627273168204304" viewBox="0 0 370.18518518518516 74.96490629477205" class="looka-1j8o68f"><defs id="SvgjsDefs1825"></defs><g id="SvgjsG1826" featurekey="HdFLvg-0" transform="matrix(0.9342002868652344,0,0,0.9342002868652344,-9.809102344837642,-10.047324421253977)" fill="#252a34"><g xmlns="http://www.w3.org/2000/svg"><path d="M78.875,34c-0.553,0-1,0.448-1,1v48.5h-4.511l-2.786-10.812c-0.015-0.057-0.051-0.101-0.074-0.152   c-0.004-0.156-0.005-0.31-0.036-0.491c-0.059-0.331,0.017-0.66,0.211-0.928c0.193-0.267,0.483-0.439,0.816-0.486   c0.986-0.141,1.688-0.644,1.927-1.378s-0.035-1.553-0.751-2.245c-0.241-0.233-0.374-0.543-0.374-0.873s0.133-0.64,0.374-0.873   c0.716-0.692,0.989-1.511,0.751-2.245s-0.94-1.237-1.928-1.378c-0.332-0.047-0.622-0.22-0.815-0.486   c-0.194-0.268-0.27-0.597-0.211-0.928c0.178-1.018-0.123-1.635-0.407-1.972c-0.587-0.7-1.627-0.82-2.674-0.266   c-0.604,0.318-1.367,0.064-1.662-0.54c-0.438-0.896-1.132-1.408-1.904-1.408s-1.467,0.513-1.904,1.408   c-0.295,0.604-1.061,0.858-1.661,0.54c-1.049-0.555-2.088-0.435-2.675,0.266c-0.284,0.338-0.585,0.954-0.407,1.972   c0.059,0.331-0.017,0.66-0.211,0.928c-0.193,0.267-0.483,0.439-0.816,0.486c-0.986,0.141-1.688,0.644-1.927,1.378   s0.035,1.553,0.751,2.245c0.241,0.233,0.374,0.543,0.374,0.873s-0.133,0.64-0.374,0.873c-0.716,0.692-0.989,1.511-0.751,2.245   s0.94,1.237,1.928,1.378c0.332,0.047,0.622,0.22,0.815,0.486c0.194,0.268,0.27,0.597,0.211,0.928   c-0.134,0.766,0.004,1.305,0.201,1.669L54.871,83.5H22.375v-4.775c0.077-0.162,0.151-0.326,0.203-0.502   c0.238-0.795,0.169-1.618-0.146-2.424c0.91,0.608,1.404,1.202,1.451,1.26c0.193,0.245,0.484,0.38,0.784,0.38   c0.109,0,0.22-0.018,0.327-0.055c0.403-0.14,0.673-0.519,0.673-0.945v-8.055l0.65,0.893c0.191,0.263,0.494,0.411,0.808,0.411   c0.093,0,0.187-0.013,0.279-0.04c0.404-0.117,0.692-0.476,0.719-0.896l0.189-2.939h3c0.353,0,0.679-0.186,0.859-0.488   c0.18-0.304,0.188-0.679,0.02-0.988L25.667,52.31V30.333c0-0.356-0.19-0.686-0.499-0.865c-0.938-0.544-1.87-0.988-2.793-1.339   V12.755h55.5V29.5c0,0.552,0.447,1,1,1s1-0.448,1-1V11.755c0-0.552-0.447-1-1-1h-57.5c-0.552,0-1,0.448-1,1v15.761   c-0.957-0.22-1.9-0.331-2.826-0.331c-4.266,0-6.657,2.341-6.756,2.441c-0.188,0.188-0.293,0.442-0.293,0.707v45   c0,0.019,0.006,0.036,0.007,0.055c0,0.012-0.007,0.022-0.007,0.035c0,3.124,3.402,5.666,7.583,5.666   c0.845,0,1.622-0.167,2.292-0.467V84.5c0,0.553,0.448,1,1,1H54.36l-0.704,2.752c-0.095,0.372,0.03,0.765,0.324,1.013   c0.293,0.246,0.7,0.306,1.052,0.148l2.425-1.08l1.687,2.265C59.334,90.854,59.633,91,59.945,91c0.068,0,0.137-0.007,0.205-0.021   c0.382-0.08,0.682-0.374,0.77-0.754l1.091-4.725h4.21l1.104,4.728c0.088,0.379,0.389,0.672,0.77,0.751   C68.163,90.993,68.231,91,68.299,91c0.313,0,0.611-0.146,0.802-0.402l1.687-2.265l2.425,1.08c0.353,0.158,0.76,0.098,1.053-0.149   c0.293-0.248,0.419-0.642,0.323-1.014l-0.709-2.75h4.996c0.553,0,1-0.447,1-1V35C79.875,34.448,79.428,34,78.875,34z    M19.321,72.544c-0.018-0.004-0.035-0.005-0.053-0.007c-0.438-0.059-0.892-0.1-1.375-0.1c-1.739,0-3.548,0.424-5.393,1.262V52.984   c1.595-0.586,6.361-1.912,11.167,0.734v20.504C22.644,73.519,21.185,72.801,19.321,72.544z M23.667,51.47   c-4.627-2.141-8.99-1.297-11.167-0.605v-2.189c1.147-0.645,4.849-2.165,11.167,0.151V51.47z M29.632,63.813h-2.257   c-0.527,0-0.964,0.409-0.998,0.936l-0.072,1.115l-0.639-0.876v-8.485L29.632,63.813z M17.549,29.186   c1.936,0,3.991,0.583,6.117,1.733v15.784c-5.455-1.827-9.202-1.029-11.167-0.23v-15.68C13.152,30.287,14.88,29.186,17.549,29.186z    M18.083,79.089c-2.771,0-5.142-1.408-5.523-3.171c1.855-0.966,3.649-1.48,5.333-1.48c0.299,0,0.583,0.02,0.86,0.048   c1.48,1.027,2.198,2.199,1.909,3.164C20.405,78.511,19.368,79.089,18.083,79.089z M56.429,68.65   c-0.088-0.012-0.158-0.028-0.213-0.045c0.034-0.045,0.082-0.1,0.145-0.16c0.634-0.613,0.983-1.434,0.983-2.311   s-0.35-1.697-0.983-2.311c-0.063-0.061-0.11-0.115-0.145-0.16c0.055-0.017,0.125-0.032,0.212-0.045   c0.873-0.124,1.637-0.582,2.152-1.291c0.515-0.709,0.715-1.578,0.563-2.447c-0.016-0.086-0.021-0.157-0.023-0.214   c0.053,0.018,0.119,0.046,0.198,0.088c0.466,0.247,0.987,0.377,1.51,0.377c1.235,0,2.34-0.692,2.885-1.806   c0.038-0.079,0.075-0.141,0.107-0.187c0.032,0.046,0.069,0.107,0.107,0.187c0.545,1.113,1.649,1.806,2.885,1.806   c0.521,0,1.044-0.13,1.511-0.377c0.079-0.042,0.145-0.07,0.197-0.088c-0.002,0.057-0.008,0.128-0.023,0.214   c-0.151,0.869,0.049,1.738,0.563,2.447c0.516,0.709,1.279,1.167,2.151,1.291c0.088,0.012,0.158,0.028,0.213,0.045   c-0.034,0.045-0.082,0.1-0.145,0.16c-0.634,0.613-0.983,1.434-0.983,2.311s0.35,1.697,0.983,2.311   c0.063,0.061,0.11,0.115,0.145,0.16c-0.055,0.017-0.125,0.032-0.212,0.045c-0.873,0.124-1.637,0.582-2.152,1.291   c-0.515,0.709-0.715,1.578-0.563,2.447c0.016,0.086,0.021,0.157,0.023,0.214c-0.053-0.018-0.119-0.046-0.198-0.088   c-0.466-0.247-0.988-0.377-1.51-0.377c-1.235,0-2.34,0.692-2.885,1.806c-0.038,0.079-0.075,0.141-0.107,0.187   c-0.032-0.046-0.069-0.107-0.107-0.187c-0.545-1.113-1.649-1.806-2.885-1.806c-0.521,0-1.044,0.13-1.511,0.377   c-0.079,0.042-0.145,0.07-0.197,0.088c0.002-0.057,0.008-0.128,0.023-0.214c0.151-0.869-0.049-1.738-0.563-2.447   C58.064,69.232,57.301,68.774,56.429,68.65z M59.457,87.67l-0.874-1.174c-0.28-0.376-0.783-0.504-1.209-0.315l-1.269,0.564   l3.104-12.134c0.336-0.036,0.689-0.141,1.045-0.329c0.604-0.317,1.367-0.064,1.662,0.54c0.108,0.223,0.233,0.42,0.371,0.594   L59.457,87.67z M62.473,83.5l1.632-7.064l1.649,7.064H62.473z M70.87,86.181c-0.427-0.188-0.93-0.061-1.209,0.315l-0.878,1.18   l-3.016-12.909c0.316-0.558,1.04-0.79,1.618-0.484c0.566,0.3,1.128,0.396,1.618,0.316l3.13,12.145L70.87,86.181z"></path><path d="M78.17,31.42c-0.19,0.18-0.29,0.44-0.29,0.71c0,0.26,0.1,0.52,0.29,0.7c0.18,0.19,0.439,0.3,0.7,0.3   c0.27,0,0.529-0.11,0.71-0.3c0.189-0.18,0.3-0.44,0.3-0.7c0-0.27-0.11-0.53-0.3-0.71C79.22,31.05,78.54,31.05,78.17,31.42z"></path><path d="M67.875,24.787h-35.5c-0.552,0-1,0.448-1,1s0.448,1,1,1h35.5c0.553,0,1-0.448,1-1S68.428,24.787,67.875,24.787z"></path><path d="M67.875,32.938h-35.5c-0.552,0-1,0.448-1,1s0.448,1,1,1h35.5c0.553,0,1-0.448,1-1S68.428,32.938,67.875,32.938z"></path><path d="M68.875,41.963c0-0.552-0.447-1-1-1h-35.5c-0.552,0-1,0.448-1,1s0.448,1,1,1h35.5   C68.428,42.963,68.875,42.516,68.875,41.963z"></path><path d="M55.021,50c0-0.552-0.447-1-1-1H32.375c-0.552,0-1,0.448-1,1s0.448,1,1,1h21.646C54.574,51,55.021,50.552,55.021,50z"></path><path d="M67.875,17h-6.584c-0.553,0-1,0.448-1,1s0.447,1,1,1h6.584c0.553,0,1-0.448,1-1S68.428,17,67.875,17z"></path><path d="M63.82,70.76c2.688,0,4.875-2.187,4.875-4.875s-2.187-4.875-4.875-4.875s-4.875,2.187-4.875,4.875   S61.132,70.76,63.82,70.76z M63.82,63.01c1.585,0,2.875,1.29,2.875,2.875s-1.29,2.875-2.875,2.875s-2.875-1.29-2.875-2.875   S62.235,63.01,63.82,63.01z"></path><path d="M14.5,40.688c0.552,0,1-0.448,1-1v-8.125c0-0.552-0.448-1-1-1s-1,0.448-1,1v8.125C13.5,40.24,13.948,40.688,14.5,40.688z"></path><path d="M14.5,43.875c0.552,0,1-0.448,1-1V42.25c0-0.552-0.448-1-1-1s-1,0.448-1,1v0.625C13.5,43.427,13.948,43.875,14.5,43.875z"></path><path d="M14.5,53.5c-0.552,0-1,0.447-1,1v14.438c0,0.553,0.448,1,1,1s1-0.447,1-1V54.5C15.5,53.947,15.052,53.5,14.5,53.5z"></path><path d="M40.667,71h-8.292c-0.552,0-1,0.447-1,1s0.448,1,1,1h8.292c0.552,0,1-0.447,1-1S41.219,71,40.667,71z"></path><path d="M40.667,74.667h-8.292c-0.552,0-1,0.447-1,1s0.448,1,1,1h8.292c0.552,0,1-0.447,1-1S41.219,74.667,40.667,74.667z"></path></g></g><g id="SvgjsG1827" featurekey="VomJeJ-0" transform="matrix(2.934004306793213,0,0,2.934004306793213,83.82639826842254,-5.256824521630238)" fill="#252a34"><path d="M0.4 19.32 q0.02 -0.52 0.27 -1.14 t0.59 -0.98 q1.6 0.84 2.78 0.84 q0.56 0 0.86 -0.19 t0.3 -0.51 q0 -0.6 -0.92 -0.9 l-1.1 -0.42 q-2.5 -0.92 -2.5 -3 q0 -1.52 1.05 -2.41 t2.83 -0.89 q0.88 0 1.94 0.25 t1.74 0.59 q0.04 0.56 -0.22 1.23 t-0.64 0.95 q-1.68 -0.76 -2.8 -0.76 q-0.4 0 -0.61 0.18 t-0.21 0.46 q0 0.48 0.76 0.76 l1.24 0.44 q2.66 0.94 2.66 3.22 q0 1.5 -1.1 2.38 t-3.14 0.88 t-3.78 -0.98 z M15.899999999999999 10 q0.12 0.56 0.12 1.12 t-0.12 1.1 l-2.38 -0.04 l0 4.6 q0 0.94 0.88 0.94 l1.12 0 q0.26 0.72 0.26 1.32 t-0.08 0.86 q-1.48 0.2 -2.72 0.2 q-2.52 0 -2.52 -2.78 l0 -5.12 l-1.56 0.02 q-0.14 -0.5 -0.14 -1.09 t0.14 -1.13 l1.56 0.04 l0 -1.16 q0 -1.02 0.39 -1.45 t1.31 -0.43 l1.22 0 l0.14 0.14 l0 2.9 z M17.5 16.62 l0 -4.1 q0 -1.3 -0.48 -2 q0.74 -0.66 1.8 -0.66 t1.44 0.48 t0.38 1.46 l0 4.24 q0 0.7 0.16 1.02 t0.84 0.32 q0.66 0 1.34 -0.68 l0 -6.68 q0.66 -0.12 1.54 -0.12 t1.58 0.12 l0 7.12 q0 1.08 0.56 1.46 q-0.1 0.4 -0.38 0.87 t-0.58 0.69 q-1.64 -0.06 -2.36 -1.4 q-1.58 1.42 -2.98 1.42 t-2.13 -0.97 t-0.73 -2.59 z M31.98 9.82 q0.96 0 1.86 0.44 l0 -4.84 l0.12 -0.14 l1.22 0 q0.96 0 1.33 0.42 t0.37 1.46 l0 9.96 q0 1.06 0.56 1.44 q-0.1 0.42 -0.38 0.9 t-0.58 0.7 q-1.46 -0.04 -2.14 -1.12 q-1.2 1.26 -2.88 1.26 t-2.58 -1.4 t-0.9 -3.84 q0 -1.2 0.31 -2.17 t0.85 -1.65 t1.27 -1.05 t1.57 -0.37 z M32.38 17.78 q0.82 0 1.46 -0.78 l0 -4.38 q-0.82 -0.48 -1.3 -0.48 q-1.36 0 -1.36 3 q0 2.64 1.2 2.64 z M47.959999999999994 10.34 l-2.46 9.4 q-0.58 2.16 -1.54 3.32 q-1.1 1.32 -3.38 1.32 q-1.22 0 -2.42 -0.4 q-0.06 -0.54 0.12 -1.21 t0.5 -1.03 q0.9 0.3 1.8 0.3 q1.48 0 1.96 -1.62 l0.08 -0.28 q-1.74 0 -2.08 -1.26 l-2.32 -8.62 q0.92 -0.42 1.72 -0.42 t1.17 0.3 t0.55 1.04 l0.92 3.84 q0.14 0.54 0.46 2.64 q0.02 0.14 0.16 0.14 l1.74 -7.76 q0.48 -0.14 1.3 -0.14 q0.92 0 1.6 0.22 z M54.21999999999999 20 l0 -7.8 l-1.72 0.02 q-0.12 -0.5 -0.12 -1.1 t0.12 -1.12 l1.56 0.02 q-0.1 -0.74 -0.1 -1.34 q0 -1.5 0.97 -2.49 t2.53 -0.99 t3.06 0.56 q0.02 0.52 -0.18 1.13 t-0.5 0.93 q-0.94 -0.28 -1.54 -0.28 q-1.34 0 -1.34 1.38 q0 0.58 0.08 1.12 l2.62 -0.04 q0.12 0.52 0.12 1.12 t-0.12 1.1 l-2.4 -0.04 l0 7.82 q-0.68 0.12 -1.5 0.12 t-1.54 -0.12 z M67.89999999999999 10.9 q1.44 1.44 1.44 4.12 q0 1.2 -0.31 2.18 t-0.9 1.67 t-1.45 1.06 t-1.98 0.37 t-1.97 -0.38 t-1.44 -1.07 t-0.89 -1.67 t-0.3 -2.16 q0 -1.2 0.3 -2.17 t0.88 -1.67 t1.44 -1.08 t1.98 -0.38 q1.98 0 3.2 1.18 z M64.72 12.059999999999999 q-0.44 0 -0.71 0.21 t-0.43 0.57 t-0.22 0.83 t-0.06 1.01 q0 0.84 0.05 1.45 t0.2 1.02 t0.42 0.61 t0.71 0.2 q0.88 0 1.16 -0.77 t0.28 -2.19 q0 -1.44 -0.28 -2.19 t-1.12 -0.75 z M70.53999999999999 11.46 q0.1 -0.4 0.38 -0.89 t0.56 -0.71 q1.84 0.14 2.56 1.82 q0.76 -1.8 2.5 -1.8 q0.52 0 1.32 0.16 q0 0.62 -0.21 1.47 t-0.57 1.45 q-0.34 -0.12 -1.02 -0.2 q-1 0 -1.64 1.02 l0 6.22 q-0.66 0.12 -1.55 0.12 t-1.57 -0.12 l0 -6.46 q0 -1.5 -0.76 -2.08 z M84.92 10.66 q0.68 -0.76 1.88 -0.8 q0.32 0.24 0.61 0.72 t0.35 0.88 q-0.56 0.38 -0.56 1.44 l0 5.28 q0 1.84 -0.29 3.05 t-0.88 1.92 t-1.49 0.99 t-2.12 0.28 q-2.06 0 -3.76 -0.66 q0 -0.56 0.22 -1.22 t0.54 -1.04 q1.34 0.6 2.72 0.6 q2.02 0 2.02 -2.02 l0 -0.66 q-1.08 0.78 -2.28 0.78 q-1.78 0 -2.69 -1.41 t-0.91 -3.83 q0 -1.22 0.31 -2.19 t0.85 -1.65 t1.25 -1.04 t1.51 -0.36 q1.62 0 2.72 0.94 z M84.16 17 l0 -4.28 q-0.7 -0.68 -1.32 -0.68 q-1.36 0 -1.36 3 q0 2.64 1.18 2.64 q0.82 0 1.5 -0.68 z M97.34 16.02 l-5.22 0 q0.04 0.9 0.46 1.4 t1.38 0.5 q0.48 0 1.11 -0.14 t1.45 -0.46 q0.66 0.68 0.82 1.84 q-1.6 1.14 -3.92 1.14 q-1.26 0 -2.11 -0.4 t-1.38 -1.12 t-0.75 -1.7 t-0.22 -2.14 q0 -1.12 0.27 -2.07 t0.82 -1.65 t1.4 -1.1 t1.99 -0.4 q0.96 0 1.73 0.32 t1.31 0.88 t0.83 1.34 t0.29 1.7 q0 1.22 -0.26 2.06 z M92.1 13.86 l2.64 0 l0 -0.22 q0 -0.74 -0.33 -1.22 t-0.99 -0.48 q-0.64 0 -0.95 0.45 t-0.37 1.47 z"></path></g></svg>